<svg width="32" height="32" viewBox="0 0 32 32" fill="none" xmlns="http://www.w3.org/2000/svg">
<path fill-rule="evenodd" clip-rule="evenodd" d="M0 6.5C0 2.91015 2.91015 0 6.5 0H25.5C29.0899 0 32 2.91015 32 6.5V25.5C32 29.0899 29.0899 32 25.5 32H6.5C2.91015 32 0 29.0899 0 25.5V6.5ZM28.8078 9.11503C27.8232 6.16118 15.6796 7.06375 9.7309 7.88426C13.2181 8.08934 20.6847 8.99182 22.654 10.9611C24.6232 12.9303 20.1924 18.7559 17.7309 21.4226C21.8335 18.5508 29.7924 12.0689 28.8078 9.11503ZM23.3529 23.8845C17.4042 24.7051 5.2606 25.6076 4.27598 22.6538C3.29137 19.6999 11.2503 13.218 15.3529 10.3462C12.8914 13.0129 8.4606 18.8385 10.4298 20.8077C12.3991 22.777 19.8657 23.6795 23.3529 23.8845Z" fill="#053580"/>
</svg>
