<svg width="124" height="26" viewBox="0 0 124 26" fill="none" xmlns="http://www.w3.org/2000/svg">
<path d="M47.0114 22.8609L39.9609 12.543L46.7247 2.74251H41.5085L35.3752 11.4796V2.74251H30.7895V22.8609H35.3752V13.549L41.7951 22.8609H47.0114Z" fill="white"/>
<path d="M50.7365 7.22603C52.1409 7.22603 53.316 6.04767 53.316 4.63938C53.316 3.2311 52.1409 2.05273 50.7365 2.05273C49.3322 2.05273 48.1571 3.2311 48.1571 4.63938C48.1571 6.04767 49.3322 7.22603 50.7365 7.22603ZM48.587 22.8609H52.8861V8.49062H48.587V22.8609Z" fill="white"/>
<path d="M66.4358 8.49062V9.84142C65.49 8.74928 64.0856 8.08825 62.1654 8.08825C58.4109 8.08825 55.3155 11.3934 55.3155 15.6758C55.3155 19.9581 58.4109 23.2633 62.1654 23.2633C64.0856 23.2633 65.49 22.6022 66.4358 21.5101V22.8609H70.7349V8.49062H66.4358ZM63.0252 19.1821C61.0476 19.1821 59.6146 17.8313 59.6146 15.6758C59.6146 13.5202 61.0476 12.1694 63.0252 12.1694C65.0028 12.1694 66.4358 13.5202 66.4358 15.6758C66.4358 17.8313 65.0028 19.1821 63.0252 19.1821Z" fill="white"/>
<path d="M82.2864 8.08825C80.3948 8.08825 78.9618 8.77802 78.188 9.84142V8.49062H73.8889V22.8609H78.188V15.0147C78.188 12.9741 79.2771 12.0544 80.8534 12.0544C82.2291 12.0544 83.3469 12.8879 83.3469 14.6698V22.8609H87.6459V14.0375C87.6459 10.1576 85.1811 8.08825 82.2864 8.08825Z" fill="white"/>
<path d="M101.002 2.74251V9.84142C100.056 8.74928 98.6518 8.08825 96.7316 8.08825C92.977 8.08825 89.8817 11.3934 89.8817 15.6758C89.8817 19.9581 92.977 23.2633 96.7316 23.2633C98.6518 23.2633 100.056 22.6022 101.002 21.5101V22.8609H105.301V2.74251H101.002ZM97.5914 19.1821C95.6138 19.1821 94.1808 17.8313 94.1808 15.6758C94.1808 13.5202 95.6138 12.1694 97.5914 12.1694C99.569 12.1694 101.002 13.5202 101.002 15.6758C101.002 17.8313 99.569 19.1821 97.5914 19.1821Z" fill="white"/>
<path d="M118.859 8.49062V9.84142C117.913 8.74928 116.509 8.08825 114.588 8.08825C110.834 8.08825 107.739 11.3934 107.739 15.6758C107.739 19.9581 110.834 23.2633 114.588 23.2633C116.509 23.2633 117.913 22.6022 118.859 21.5101V22.8609H123.158V8.49062H118.859ZM115.448 19.1821C113.471 19.1821 112.038 17.8313 112.038 15.6758C112.038 13.5202 113.471 12.1694 115.448 12.1694C117.426 12.1694 118.859 13.5202 118.859 15.6758C118.859 17.8313 117.426 19.1821 115.448 19.1821Z" fill="white"/>
<path fill-rule="evenodd" clip-rule="evenodd" d="M0 5.28125C0 2.3645 2.3645 0 5.28125 0H20.7188C23.6355 0 26 2.3645 26 5.28125V20.7188C26 23.6355 23.6355 26 20.7188 26H5.28125C2.3645 26 0 23.6355 0 20.7188V5.28125ZM23.4063 7.40596C22.6063 5.00596 12.7397 5.7393 7.90634 6.40596C10.7397 6.57259 16.8063 7.30585 18.4063 8.90585C20.0063 10.5059 16.4063 15.2392 14.4063 17.4059C17.7397 15.0726 24.2063 9.80596 23.4063 7.40596ZM18.9742 19.4062C14.1409 20.0729 4.27421 20.8062 3.47421 18.4062C2.67421 16.0062 9.14088 10.7396 12.4742 8.40634C10.4742 10.573 6.87421 15.3063 8.47421 16.9063C10.0742 18.5063 16.1409 19.2396 18.9742 19.4062Z" fill="white"/>
</svg>
